<?xml version="1.0" standalone="no"?>
<!DOCTYPE svg PUBLIC "-//W3C//DTD SVG 20010904//EN"
 "http://www.w3.org/TR/2001/REC-SVG-20010904/DTD/svg10.dtd">
<svg version="1.0" xmlns="http://www.w3.org/2000/svg"
 width="548.000000pt" height="548.000000pt" viewBox="0 0 548.000000 548.000000"
 preserveAspectRatio="xMidYMid meet">
<metadata>
Created by potrace 1.14, written by Peter Selinger 2001-2017
</metadata>
<g transform="translate(0.000000,548.000000) scale(0.100000,-0.100000)"
fill="#000000" stroke="none">
<path d="M3325 5464 c-38 -6 -90 -14 -115 -18 -25 -4 -65 -12 -90 -17 -25 -5
-61 -12 -80 -14 -44 -7 -51 -8 -185 -35 -60 -12 -121 -24 -135 -26 -14 -2 -36
-7 -50 -9 -14 -3 -36 -8 -50 -10 -14 -3 -36 -7 -50 -10 -54 -12 -126 -27 -145
-30 -11 -2 -56 -10 -100 -20 -98 -20 -113 -23 -145 -29 -14 -2 -36 -7 -50 -10
-14 -3 -36 -8 -50 -10 -14 -2 -45 -9 -70 -15 -25 -5 -56 -12 -70 -14 -39 -7
-369 -75 -525 -108 -77 -17 -205 -44 -285 -60 -80 -17 -156 -33 -170 -36 -14
-3 -34 -7 -45 -8 -11 -2 -22 -4 -25 -6 -3 -1 -9 -3 -15 -4 -17 -2 -79 -16 -96
-21 -9 -2 -16 -10 -16 -17 -2 -20 -14 -110 -19 -137 -2 -14 -7 -50 -9 -80 -3
-30 -8 -66 -10 -80 -2 -14 -7 -47 -11 -75 -3 -27 -8 -58 -10 -68 -2 -10 -6
-45 -9 -78 -4 -33 -8 -70 -11 -82 -2 -12 -6 -42 -9 -67 -3 -25 -7 -58 -10 -75
-3 -16 -7 -50 -10 -75 -9 -75 -13 -104 -19 -135 -2 -16 -10 -74 -16 -129 -17
-143 -16 -141 -70 -196 -3 -3 -32 -36 -65 -75 -32 -38 -66 -77 -75 -86 -8 -8
-35 -40 -60 -69 -25 -29 -49 -58 -55 -64 -5 -6 -39 -44 -74 -84 -63 -72 -63
-73 -32 -67 48 8 166 34 272 59 37 8 78 17 90 20 13 2 36 7 51 11 27 7 27 7
17 -27 -6 -18 -11 -37 -12 -43 -2 -5 -5 -14 -9 -20 -3 -5 -9 -26 -14 -45 -11
-50 -11 -50 -14 -52 -5 -7 -39 -178 -46 -237 -3 -25 -8 -59 -10 -76 -8 -59
-10 -341 -3 -410 13 -121 21 -180 25 -187 3 -4 7 -28 10 -54 2 -26 8 -52 11
-58 4 -6 9 -20 11 -31 4 -29 40 -152 63 -215 71 -195 207 -438 334 -593 47
-58 54 -73 33 -75 -33 -2 -103 -12 -189 -28 -52 -9 -110 -18 -129 -21 -19 -3
-38 -8 -42 -11 -3 -4 115 -198 263 -432 148 -234 273 -431 278 -439 7 -12 224
-14 1450 -14 1313 0 1441 -2 1436 -16 -34 -88 9 -175 100 -200 36 -10 323 -8
395 3 14 2 42 7 63 10 20 3 53 9 73 12 120 19 321 103 398 167 95 77 144 134
185 214 48 93 61 153 58 261 -4 112 -25 174 -91 261 -90 119 -262 218 -428
246 -45 7 -45 7 -52 70 -18 169 -32 220 -69 252 -18 16 -34 31 -36 35 -6 13
-22 101 -27 153 -2 28 -6 61 -9 75 -2 13 11 72 30 131 19 58 37 121 40 139 3
18 8 36 10 40 2 4 7 22 10 41 4 19 8 41 10 49 2 8 4 24 4 35 1 13 15 28 39 40
37 19 109 66 147 95 37 28 151 145 184 187 66 87 144 249 167 348 29 122 39
333 19 415 -3 14 -7 36 -10 50 -2 14 -10 44 -19 68 -8 23 -13 42 -11 42 9 0
-69 158 -109 219 -53 82 -150 188 -227 247 -113 87 -299 170 -425 190 -27 4
-52 9 -56 10 -5 1 -20 2 -35 3 -30 1 -24 13 10 18 19 3 55 10 177 38 44 10
168 37 189 41 12 3 53 12 90 20 36 9 77 18 91 20 14 3 33 7 42 10 16 5 51 12
85 18 33 6 13 15 -105 49 -70 20 -206 59 -302 87 -96 29 -256 75 -354 103
-179 52 -179 52 -204 92 -14 22 -37 58 -52 80 -15 22 -30 47 -33 55 -7 16
-104 163 -202 307 -132 195 -266 357 -326 396 -28 19 -67 19 -174 1z m429
-1496 c-177 -117 -327 -311 -395 -513 -20 -59 -24 -73 -34 -125 -79 -401 97
-814 442 -1033 140 -88 282 -136 466 -156 4 -1 6 -4 6 -8 -1 -5 -1 -21 0 -36
1 -30 37 -52 58 -35 8 6 15 3 22 -10 6 -11 8 -21 6 -24 -3 -2 4 -65 15 -139
11 -74 22 -154 24 -179 3 -25 7 -54 9 -65 3 -11 8 -45 11 -77 6 -50 4 -60 -19
-93 -14 -21 -25 -52 -25 -69 0 -17 -10 -44 -23 -60 l-23 -28 -84 16 c-47 9
-96 18 -110 21 -14 3 -50 10 -80 16 -30 5 -66 12 -80 15 -14 3 -101 20 -195
39 -93 19 -185 37 -204 40 -19 3 -37 8 -41 10 -5 3 -60 -146 -66 -180 -1 -5
-11 -37 -22 -70 -11 -33 -46 -141 -77 -240 -71 -228 -92 -284 -98 -265 -2 8
-10 44 -16 80 -13 72 -11 65 -40 208 -11 56 -23 115 -26 130 -3 15 -7 38 -10
52 -11 50 -26 126 -30 150 -7 45 -16 85 -22 105 -6 20 -13 58 -15 83 -2 16 12
17 -278 -33 -14 -3 -36 -7 -50 -10 -14 -3 -45 -8 -70 -11 -25 -3 -52 -7 -60
-9 -8 -2 -28 -6 -45 -9 -16 -3 -73 -12 -125 -21 -52 -9 -108 -18 -125 -21 -16
-3 -37 -7 -45 -9 -13 -3 -54 -10 -125 -20 -21 -3 -52 -9 -150 -26 -33 -6 -73
-13 -90 -16 -16 -2 -66 -10 -110 -18 -44 -8 -96 -17 -115 -20 -33 -5 -275 -47
-350 -61 -19 -3 -44 -7 -55 -9 -11 -1 -47 -7 -80 -13 -135 -25 -135 -25 -160
5 -14 16 -36 42 -50 58 -55 62 -176 256 -234 373 -34 67 -61 124 -61 126 0 3
-5 17 -12 33 -6 15 -12 30 -13 33 -1 3 -16 51 -34 107 -17 56 -34 114 -37 130
-3 15 -10 46 -16 68 -5 22 -12 56 -14 75 -2 19 -6 45 -9 57 -18 76 -25 410
-11 503 4 25 9 61 11 80 8 69 39 224 55 270 5 14 16 52 26 85 9 33 21 65 26
71 4 6 5 13 2 16 -6 6 12 11 161 44 61 14 119 27 130 29 11 3 36 8 55 11 19 3
38 8 41 10 3 2 21 6 40 9 19 3 52 11 74 17 22 6 54 12 70 15 17 2 57 11 90 20
33 8 69 16 80 18 11 1 62 12 113 24 51 12 101 23 110 25 9 1 28 6 42 9 24 6
267 60 320 71 14 3 34 7 45 10 26 6 212 47 234 51 9 2 46 10 82 19 37 8 78 17
90 20 13 2 67 14 119 26 52 12 106 24 120 26 14 3 43 10 65 15 22 5 51 12 65
15 14 3 144 31 290 64 146 32 276 61 290 64 14 2 57 12 95 20 103 24 258 58
272 60 7 1 15 4 17 7 3 3 15 5 27 6 13 1 -9 -18 -57 -49z m915 -1843 c-11 -50
-22 -94 -23 -100 -2 -5 -9 -31 -16 -58 -13 -50 -25 -67 -26 -39 -2 26 -13 113
-20 145 -4 20 -2 27 10 28 47 4 57 15 51 58 -4 32 -1 40 18 48 12 6 23 10 24
9 1 -1 -7 -42 -18 -91z"/>
<path d="M2120 3399 c-31 -13 -51 -35 -72 -79 -53 -112 -35 -298 34 -369 17
-17 33 -31 37 -32 3 0 16 -2 27 -5 21 -3 106 48 102 64 0 4 7 25 17 47 23 51
28 180 9 241 -19 63 -51 112 -84 129 -33 17 -36 17 -70 4z"/>
<path d="M2965 3132 c-6 -4 -11 -34 -11 -67 -1 -33 -4 -71 -8 -85 -5 -20 -36
-176 -51 -260 -2 -8 -13 -69 -25 -135 -13 -71 -28 -125 -37 -132 -23 -18 -7
-49 35 -69 20 -10 42 -19 47 -20 51 -13 126 -20 207 -20 91 1 99 3 123 26 34
34 46 95 30 158 -3 12 -7 32 -10 43 -20 92 -105 277 -196 428 -22 34 -39 66
-39 70 -1 15 -57 69 -65 63z"/>
</g>
</svg>
